<svg xmlns="http://www.w3.org/2000/svg" width="336.282" height="720.451" viewBox="0 0 336.282 720.451">
  <g id="Group_1676" data-name="Group 1676" transform="translate(-19.828 -76.533)">
    <g id="scattered-forcefields" transform="translate(380.26 -0.351) rotate(90)" opacity="0.29">
      <g id="Group_1660" data-name="Group 1660" transform="translate(114.37 20.26)">
        <g id="Group_1658" data-name="Group 1658" transform="translate(0 31.428)">
          <path id="Icon_metro-dollar2" data-name="Icon metro-dollar2" d="M29.343,26.824A7.9,7.9,0,0,1,27.276,32.3,8.923,8.923,0,0,1,21.9,35.135v3.636a.64.64,0,0,1-.665.665h-2.8a.674.674,0,0,1-.665-.665V35.135a13.1,13.1,0,0,1-2.649-.644,12.759,12.759,0,0,1-3.646-1.922,11.841,11.841,0,0,1-.966-.779q-.26-.249-.364-.374a.631.631,0,0,1-.042-.852l2.14-2.8a.647.647,0,0,1,.478-.249.515.515,0,0,1,.5.187l.042.042a10.849,10.849,0,0,0,5.049,2.6,7.257,7.257,0,0,0,1.538.166,5.038,5.038,0,0,0,2.961-.893,2.91,2.91,0,0,0,1.278-2.535,2.106,2.106,0,0,0-.312-1.1,3.893,3.893,0,0,0-.7-.873,5.7,5.7,0,0,0-1.215-.779q-.831-.426-1.371-.665T18.83,22.98q-.81-.332-1.278-.519t-1.278-.551q-.81-.364-1.3-.644T13.8,20.529a7.316,7.316,0,0,1-1.112-.883,12.949,12.949,0,0,1-.9-1.018,5.083,5.083,0,0,1-.738-1.205,8.333,8.333,0,0,1-.436-1.382,7.211,7.211,0,0,1-.177-1.621,7.1,7.1,0,0,1,2.036-5.028,9.507,9.507,0,0,1,5.3-2.784V2.868a.674.674,0,0,1,.665-.665h2.8a.64.64,0,0,1,.665.665V6.525A11.557,11.557,0,0,1,24.2,7a13.312,13.312,0,0,1,1.808.7,10.011,10.011,0,0,1,1.319.779q.623.436.81.6t.312.291a.6.6,0,0,1,.1.79l-1.683,3.033a.566.566,0,0,1-.478.332.662.662,0,0,1-.561-.145q-.062-.062-.3-.249t-.81-.551a10.722,10.722,0,0,0-1.215-.665,9.28,9.28,0,0,0-1.548-.54,6.932,6.932,0,0,0-1.776-.239,5.4,5.4,0,0,0-3.22.893,2.793,2.793,0,0,0-1.07,3.3,2.338,2.338,0,0,0,.613.862,9.157,9.157,0,0,0,.821.686,7.318,7.318,0,0,0,1.164.644q.779.364,1.257.561t1.454.571q1.1.416,1.683.654t1.579.727a12.552,12.552,0,0,1,1.569.883,13.265,13.265,0,0,1,1.288,1.039,5.379,5.379,0,0,1,1.1,1.319,7.529,7.529,0,0,1,.654,1.589,6.854,6.854,0,0,1,.27,1.953Z" transform="matrix(0.946, 0.326, -0.326, 0.946, -34.062, -29.615)" fill="#38b7ff"/>
          <path id="Icon_material-euro-symbol" data-name="Icon material-euro-symbol" d="M22.5,27.75a9.72,9.72,0,0,1-8.64-5.25H22.5v-3H12.87a9.435,9.435,0,0,1,0-3H22.5v-3H13.86a9.731,9.731,0,0,1,14.985-2.9L31.5,7.95A13.48,13.48,0,0,0,9.78,13.5H4.5v3H9.09a12.545,12.545,0,0,0,0,3H4.5v3H9.78A13.48,13.48,0,0,0,31.5,28.05l-2.67-2.655A9.608,9.608,0,0,1,22.5,27.75Z" transform="translate(-24.467 314.02) rotate(-101)" fill="#ffad0c"/>
          <path id="Icon_material-euro-symbol-2" data-name="Icon material-euro-symbol" d="M18.639,22.763a7.635,7.635,0,0,1-6.787-4.124h6.787V16.283H11.075a7.411,7.411,0,0,1,0-2.357h7.565V11.57H11.852A7.644,7.644,0,0,1,23.623,9.3L25.709,7.21A10.589,10.589,0,0,0,8.648,11.57H4.5v2.357H8.106a9.854,9.854,0,0,0,0,2.357H4.5v2.357H8.648A10.589,10.589,0,0,0,25.709,23l-2.1-2.086a7.547,7.547,0,0,1-4.972,1.85Z" transform="translate(560.481 311.072) rotate(-90)" fill="#38b7ff"/>
          <path id="Icon_metro-dollar2-2" data-name="Icon metro-dollar2" d="M29.343,26.824A7.9,7.9,0,0,1,27.276,32.3,8.923,8.923,0,0,1,21.9,35.135v3.636a.64.64,0,0,1-.665.665h-2.8a.674.674,0,0,1-.665-.665V35.135a13.1,13.1,0,0,1-2.649-.644,12.759,12.759,0,0,1-3.646-1.922,11.841,11.841,0,0,1-.966-.779q-.26-.249-.364-.374a.631.631,0,0,1-.042-.852l2.14-2.8a.647.647,0,0,1,.478-.249.515.515,0,0,1,.5.187l.042.042a10.849,10.849,0,0,0,5.049,2.6,7.257,7.257,0,0,0,1.538.166,5.038,5.038,0,0,0,2.961-.893,2.91,2.91,0,0,0,1.278-2.535,2.106,2.106,0,0,0-.312-1.1,3.893,3.893,0,0,0-.7-.873,5.7,5.7,0,0,0-1.215-.779q-.831-.426-1.371-.665T18.83,22.98q-.81-.332-1.278-.519t-1.278-.551q-.81-.364-1.3-.644T13.8,20.529a7.316,7.316,0,0,1-1.112-.883,12.949,12.949,0,0,1-.9-1.018,5.083,5.083,0,0,1-.738-1.205,8.333,8.333,0,0,1-.436-1.382,7.211,7.211,0,0,1-.177-1.621,7.1,7.1,0,0,1,2.036-5.028,9.507,9.507,0,0,1,5.3-2.784V2.868a.674.674,0,0,1,.665-.665h2.8a.64.64,0,0,1,.665.665V6.525A11.557,11.557,0,0,1,24.2,7a13.312,13.312,0,0,1,1.808.7,10.011,10.011,0,0,1,1.319.779q.623.436.81.6t.312.291a.6.6,0,0,1,.1.79l-1.683,3.033a.566.566,0,0,1-.478.332.662.662,0,0,1-.561-.145q-.062-.062-.3-.249t-.81-.551a10.722,10.722,0,0,0-1.215-.665,9.28,9.28,0,0,0-1.548-.54,6.932,6.932,0,0,0-1.776-.239,5.4,5.4,0,0,0-3.22.893,2.793,2.793,0,0,0-1.07,3.3,2.338,2.338,0,0,0,.613.862,9.157,9.157,0,0,0,.821.686,7.318,7.318,0,0,0,1.164.644q.779.364,1.257.561t1.454.571q1.1.416,1.683.654t1.579.727a12.552,12.552,0,0,1,1.569.883,13.265,13.265,0,0,1,1.288,1.039,5.379,5.379,0,0,1,1.1,1.319,7.529,7.529,0,0,1,.654,1.589,6.854,6.854,0,0,1,.27,1.953Z" transform="matrix(0.946, 0.326, -0.326, 0.946, 655.938, 160.385)" fill="#38b7ff"/>
        </g>
        <g id="Group_1659" data-name="Group 1659" transform="translate(76.23 0)">
          <path id="Icon_awesome-rupee-sign" data-name="Icon awesome-rupee-sign" d="M13.2,4.994a.514.514,0,0,0,.514-.514V2.764A.514.514,0,0,0,13.2,2.25H.514A.514.514,0,0,0,0,2.764V4.683A.514.514,0,0,0,.514,5.2H4.171A3.093,3.093,0,0,1,6.785,6.366H.514A.514.514,0,0,0,0,6.88V8.6a.514.514,0,0,0,.514.514H7.321a2.963,2.963,0,0,1-3.205,2.514H.514A.514.514,0,0,0,0,12.138v2.273a.515.515,0,0,0,.166.378l7.076,6.532a.515.515,0,0,0,.349.136h3.54a.514.514,0,0,0,.349-.893L5.011,14.593a5.873,5.873,0,0,0,5.93-5.484H13.2a.514.514,0,0,0,.514-.514V6.88a.514.514,0,0,0-.514-.514H10.689a5.873,5.873,0,0,0-.611-1.372Z" transform="translate(48.897 124.61) rotate(-90)" fill="#7dd957"/>
          <path id="Icon_awesome-rupee-sign-2" data-name="Icon awesome-rupee-sign" d="M13.2,4.994a.514.514,0,0,0,.514-.514V2.764A.514.514,0,0,0,13.2,2.25H.514A.514.514,0,0,0,0,2.764V4.683A.514.514,0,0,0,.514,5.2H4.171A3.093,3.093,0,0,1,6.785,6.366H.514A.514.514,0,0,0,0,6.88V8.6a.514.514,0,0,0,.514.514H7.321a2.963,2.963,0,0,1-3.205,2.514H.514A.514.514,0,0,0,0,12.138v2.273a.515.515,0,0,0,.166.378l7.076,6.532a.515.515,0,0,0,.349.136h3.54a.514.514,0,0,0,.349-.893L5.011,14.593a5.873,5.873,0,0,0,5.93-5.484H13.2a.514.514,0,0,0,.514-.514V6.88a.514.514,0,0,0-.514-.514H10.689a5.873,5.873,0,0,0-.611-1.372Z" transform="translate(402.897 17.609) rotate(-90)" fill="#7dd957"/>
        </g>
        <path id="Icon_material-euro-symbol-3" data-name="Icon material-euro-symbol" d="M22.5,27.75a9.72,9.72,0,0,1-8.64-5.25H22.5v-3H12.87a9.435,9.435,0,0,1,0-3H22.5v-3H13.86a9.731,9.731,0,0,1,14.985-2.9L31.5,7.95A13.48,13.48,0,0,0,9.78,13.5H4.5v3H9.09a12.545,12.545,0,0,0,0,3H4.5v3H9.78A13.48,13.48,0,0,0,31.5,28.05l-2.67-2.655A9.608,9.608,0,0,1,22.5,27.75Z" transform="translate(635.533 55.448) rotate(-101)" fill="#ffad0c"/>
      </g>
    </g>
    <g id="logo" transform="translate(-1.075 2919.381)">
      <path id="Path_1611" data-name="Path 1611" d="M740.825-2589.358c-28.7.03-39.914.06-40.17.107a6.986,6.986,0,0,0-.735.185,2.433,2.433,0,0,1-.5.125,8.964,8.964,0,0,0-1.547.723,10.347,10.347,0,0,0-1.983,1.906,7.527,7.527,0,0,0-.639,1.033.667.667,0,0,1-.119.215,9.586,9.586,0,0,0-.556,1.559c-.018.083-.078.484-.131.884a4.478,4.478,0,0,0,0,1.547,6.478,6.478,0,0,0,.406,1.78,7.706,7.706,0,0,0,2.867,3.709,2.883,2.883,0,0,0,.454.263,1.076,1.076,0,0,1,.269.149,6.579,6.579,0,0,0,1.678.669l.6.167h43.1c40.875,0,43.115-.006,43.438-.108a1.475,1.475,0,0,1,1.153.048c.263.078.6.161.747.185a3.422,3.422,0,0,1,.6.173,3.008,3.008,0,0,0,.6.179,2.005,2.005,0,0,1,.484.155,3.119,3.119,0,0,0,.508.179,2.9,2.9,0,0,1,.5.179,4.23,4.23,0,0,0,.538.191,18.241,18.241,0,0,1,2.748,1.212,4,4,0,0,0,.358.179,2.877,2.877,0,0,1,.358.179c.084.048.287.155.448.239a7.247,7.247,0,0,1,.968.55.817.817,0,0,0,.239.131,1.067,1.067,0,0,1,.293.179,1.048,1.048,0,0,0,.3.179.984.984,0,0,1,.3.179,1.05,1.05,0,0,0,.3.179.908.908,0,0,1,.281.161c.113.1.364.275.555.406s.5.376.7.538.526.418.723.567a29.942,29.942,0,0,1,2.509,2.163,38.215,38.215,0,0,1,3.345,3.727c.46.621,1.344,1.911,1.81,2.658.173.275.4.633.508.8a26.487,26.487,0,0,1,1.714,3.381.647.647,0,0,0,.113.263,2.454,2.454,0,0,1,.185.418c.042.131.137.37.209.538a5.679,5.679,0,0,1,.239.6c.054.161.155.46.221.657s.185.532.263.747.167.514.2.663a3.491,3.491,0,0,0,.167.538,3.585,3.585,0,0,1,.185.663,5.02,5.02,0,0,0,.155.651,5.409,5.409,0,0,1,.185.83c.048.311.143.794.2,1.075s.143.83.179,1.219.078.729.09.753.072.5.131,1.051a53.7,53.7,0,0,1,.036,6.176c-.317,2.079-.418,2.73-.562,3.435-.072.358-.179.825-.239,1.034s-.155.562-.2.788a3.21,3.21,0,0,1-.179.6,2.507,2.507,0,0,0-.155.49,4,4,0,0,1-.2.645c-.078.179-.191.49-.257.687a13.8,13.8,0,0,1-.49,1.32,1.515,1.515,0,0,0-.119.287c0,.054-.334.842-.561,1.32a30.544,30.544,0,0,1-2.581,4.5c-.161.245-.346.526-.412.633s-.323.454-.568.776-.5.657-.561.747a49.791,49.791,0,0,1-3.411,3.65,19.411,19.411,0,0,1-1.762,1.523c-.167.131-.478.371-.687.538a24.034,24.034,0,0,1-2,1.469c-.114.065-.382.227-.6.358s-.454.269-.538.3a1.4,1.4,0,0,0-.239.143,3,3,0,0,1-.388.239c-.161.09-.46.251-.657.358s-.454.239-.567.293a4,4,0,0,0-.358.179c-.084.048-.245.125-.358.179-.191.083-.3.137-.627.311a11.01,11.01,0,0,1-1.792.747c-.2.066-.508.179-.687.257a3.49,3.49,0,0,1-.538.179,2.215,2.215,0,0,0-.43.155,3.125,3.125,0,0,1-.6.2,6.373,6.373,0,0,0-.693.209,1.907,1.907,0,0,1-.424.119,4.847,4.847,0,0,0-.639.155c-.293.084-.771.191-1.069.239s-.711.143-.926.2-.98.2-1.7.3a18.649,18.649,0,0,1-3.315.2,12.42,12.42,0,0,0-2.33.114c-.179.054-.514.149-.747.209a7.633,7.633,0,0,0-2.592,1.284c-.311.233-.6.448-.657.484a.456.456,0,0,0-.137.12c-.054.072-.066,13.834-.012,13.971a.14.14,0,0,0,.113.1c.042,0,.173.155.3.346s.424.579.657.878.508.651.6.782.388.52.651.854c.836,1.057,1.422,1.81,1.953,2.515,1.475,1.936,2.156,2.813,2.365,3.028a.783.783,0,0,1,.191.281.248.248,0,0,0,.09.156c.048.042.281.328.52.645s.6.782.794,1.027.555.7.788,1.015c.681.9.974,1.272,1.141,1.457.084.1.263.329.394.52.358.5.794,1.081,1.171,1.547.358.442.6.753.962,1.254.137.179.352.454.49.615s.382.478.544.7.639.842,1.051,1.374c.9,1.165,1.732,2.24,2.431,3.154.293.371.609.783.7.908.263.334,1.177,1.523,1.493,1.935.149.2.352.454.448.567s.281.346.406.514c.376.52.794,1.075,1.356,1.786.3.376.633.812.747.968s.329.436.478.615c.245.293.836,1.069,1.595,2.085.131.185.376.5.538.687.263.328.711.908,2.073,2.694.281.358.777,1,1.111,1.434s.782,1.009,1,1.3a2.9,2.9,0,0,0,.448.52c.03,0,.09.09.137.2a.726.726,0,0,0,.143.239c.03.018.251.3.49.615s.669.872.95,1.225.633.806.788,1.016c.568.758,2.557,3.333,2.933,3.8.119.155.287.382.37.5a1.136,1.136,0,0,0,.269.3c.066.042.119.108.119.143a16.66,16.66,0,0,0,1.231,1.637,8.422,8.422,0,0,0,4.773,3.022,5.714,5.714,0,0,0,2.282.024,4.856,4.856,0,0,0,1.523-.3,2.417,2.417,0,0,1,.478-.173,1.025,1.025,0,0,0,.317-.149,1.093,1.093,0,0,1,.335-.149,4.091,4.091,0,0,0,1.069-.639,8.262,8.262,0,0,0,1.607-1.541c.615-.9.723-1.069.723-1.153a1.106,1.106,0,0,1,.143-.334,7.533,7.533,0,0,0,.7-2.993,8.872,8.872,0,0,0-.329-2.407,3.955,3.955,0,0,1-.185-.55,7.985,7.985,0,0,0-.884-1.613c-.388-.549-.7-.974-.968-1.3-.161-.2-.394-.5-.508-.657s-.329-.436-.478-.615-.508-.639-.794-1.016-.776-1.027-1.1-1.446-.759-.991-.974-1.272-.526-.681-.687-.884-.5-.639-.747-.968-.579-.764-.747-.961-.568-.723-.9-1.159-.86-1.129-1.189-1.547-.741-.956-.92-1.2-.472-.615-.639-.818-.376-.472-.466-.6-.334-.442-.538-.705-.478-.627-.609-.806-.412-.543-.633-.806-.478-.6-.573-.747-.388-.525-.633-.836-.526-.669-.621-.794-.3-.395-.466-.6-.538-.681-.824-1.057c-.478-.639-1.111-1.458-2.419-3.154-.287-.371-.687-.9-.9-1.165s-.484-.627-.609-.788c-.382-.484-1.123-1.451-1.726-2.246-.311-.406-.675-.878-.806-1.039s-.448-.568-.693-.9-.561-.741-.711-.914-.388-.49-.538-.693c-.3-.418-1.213-1.6-1.911-2.491-.251-.311-.579-.741-.735-.956-.311-.418-.932-1.225-1.452-1.876-.185-.232-.46-.579-.6-.776s-.376-.5-.5-.657c-.376-.472-1.117-1.446-1.7-2.216-.293-.394-.663-.86-.818-1.045a1.464,1.464,0,0,1-.287-.436c0-.149.227-.257.806-.394a7.238,7.238,0,0,0,.806-.245,5.8,5.8,0,0,1,.687-.227c.233-.06.538-.149.687-.2.472-.167,1.033-.346,1.434-.454a3.208,3.208,0,0,0,.6-.233.851.851,0,0,1,.3-.132,1.733,1.733,0,0,0,.442-.179,1.726,1.726,0,0,1,.412-.179,1.07,1.07,0,0,0,.3-.125c.131-.066.388-.174.561-.239a2.645,2.645,0,0,0,.448-.2,2.233,2.233,0,0,1,.364-.156,3.846,3.846,0,0,0,.508-.215c.149-.078.364-.185.478-.233a4,4,0,0,0,.358-.179c.084-.048.406-.209.717-.365s.729-.364.926-.472.5-.269.657-.358.442-.239.609-.346.538-.323.806-.484.561-.346.645-.412.352-.245.6-.406c.621-.412.974-.657,1.463-1,.233-.167.526-.376.657-.466a51.289,51.289,0,0,0,8.578-8.118c.926-1.117,1.75-2.192,2.15-2.8.084-.131.2-.3.251-.388.836-1.249,1.469-2.234,1.72-2.688.054-.1.137-.239.191-.323.137-.2.311-.508.651-1.141.161-.3.328-.6.376-.687.209-.371.842-1.619,1.117-2.21.1-.215.269-.579.376-.806a9.512,9.512,0,0,0,.567-1.338,1.231,1.231,0,0,1,.125-.317,11.988,11.988,0,0,0,.532-1.422c.072-.215.179-.508.245-.657a4.482,4.482,0,0,0,.179-.567,2.832,2.832,0,0,1,.161-.472,12.7,12.7,0,0,0,.466-1.559c.048-.2.155-.585.239-.866.2-.705.561-2.282.561-2.461a5.089,5.089,0,0,1,.143-.711,10.252,10.252,0,0,0,.209-1.189c.036-.346.119-.9.185-1.224a32.415,32.415,0,0,0,.275-4.779c.042-2.168-.1-6.481-.245-7.228-.054-.263-.131-.83-.179-1.254s-.155-1.081-.239-1.446a6.353,6.353,0,0,1-.149-.872,3.536,3.536,0,0,0-.119-.645c-.072-.245-.167-.657-.215-.92s-.155-.693-.233-.956-.161-.585-.185-.717a3.219,3.219,0,0,0-.155-.531,3.91,3.91,0,0,1-.167-.6,6.347,6.347,0,0,0-.2-.693c-.227-.621-.4-1.135-.526-1.571a3.392,3.392,0,0,0-.2-.538,1.552,1.552,0,0,1-.155-.4,3.359,3.359,0,0,0-.191-.5,3.924,3.924,0,0,1-.209-.532,2.13,2.13,0,0,0-.167-.424,2.259,2.259,0,0,1-.149-.365,1.969,1.969,0,0,0-.179-.388,1.17,1.17,0,0,1-.149-.3c-.042-.138-.735-1.619-.878-1.882-.042-.065-.263-.5-.5-.961a19.131,19.131,0,0,0-1.027-1.822.989.989,0,0,1-.137-.257,19.951,19.951,0,0,0-1.213-1.888,41.627,41.627,0,0,0-5.358-6.66,38.622,38.622,0,0,0-5.161-4.689c-.066-.048-.454-.334-.854-.627-1-.741-1.434-1.057-1.744-1.26-.143-.1-.364-.239-.484-.323s-.3-.2-.394-.263-.287-.191-.424-.281a1.447,1.447,0,0,0-.287-.173,1.038,1.038,0,0,1-.221-.125,3.807,3.807,0,0,0-.424-.257c-.137-.078-.412-.221-.609-.329s-.508-.275-.687-.37-.37-.2-.418-.233-.185-.1-.3-.161-.376-.191-.568-.293-.472-.245-.621-.317-.311-.161-.358-.191-.185-.1-.3-.149-.358-.173-.544-.269a1.884,1.884,0,0,0-.412-.173.888.888,0,0,1-.293-.137,8.441,8.441,0,0,0-1.392-.585c-.257-.1-.675-.251-.926-.347s-.573-.215-.7-.269a1.881,1.881,0,0,0-.352-.1,1.95,1.95,0,0,1-.448-.143,13.24,13.24,0,0,0-1.589-.5c-.2-.048-.544-.149-.776-.227a7.25,7.25,0,0,0-.747-.209c-.179-.036-.5-.119-.7-.179a5.8,5.8,0,0,0-.776-.179,5.84,5.84,0,0,1-.759-.179,7.109,7.109,0,0,0-.788-.173,1.835,1.835,0,0,1-.633-.179,2.273,2.273,0,0,0-.669-.191,4.309,4.309,0,0,1-.753-.173,18.489,18.489,0,0,0-4.355-.257C781.778-2589.388,762.723-2589.376,740.825-2589.358Z" transform="translate(-560.108 0)" fill="#38b7ff"/>
      <g id="Group_1655" data-name="Group 1655" transform="translate(126.708 -2519.999)">
        <path id="Path_1613" data-name="Path 1613" d="M1843.038-1427.758c-.215.149-4.259,4.217-4.462,4.48-.09.126-.4.454-.681.741a7.308,7.308,0,0,0-.627.681c-.114.167-.114.968-.131,34.275-.012,29.43,0,34.137.072,34.353a3.692,3.692,0,0,0,.974,1.583c.52.406.645.484.818.514.1.024.765.03,1.469.018,1.237-.018,1.3-.024,1.464-.155.1-.072.3-.221.442-.329a3.589,3.589,0,0,0,.974-1.4l.2-.46.036-27.149c.042-26.868.024-45.206-.042-46.406-.03-.5-.06-.639-.149-.729C1843.253-1427.884,1843.223-1427.884,1843.038-1427.758Z" transform="translate(-1755.32 1427.851)" fill="#7dd957"/>
        <path id="Path_1614" data-name="Path 1614" d="M923.183-977.809c-.018.108-.024,10.812-.018,23.792l.018,23.594.2.388a6.622,6.622,0,0,0,.651,1.147,3.83,3.83,0,0,0,1.063.741c.1.018.759.024,1.464.012l1.284-.018.359-.251a4.093,4.093,0,0,0,.49-.388,5.048,5.048,0,0,0,.753-1.236l.191-.454.03-20.4c.018-13.518.012-20.464-.03-20.59a3.638,3.638,0,0,0-.627-.776c-.311-.323-.645-.693-.747-.824-.275-.37-4.856-4.928-4.958-4.928C923.254-978,923.2-977.922,923.183-977.809Z" transform="translate(-895.945 1004.871)" fill="#7dd957"/>
        <path id="Path_1615" data-name="Path 1615" d="M1385.221-953.938c-.484.49-.968.992-1.063,1.123s-1,1.063-2.013,2.079c-1.714,1.714-1.846,1.864-1.929,2.156-.078.275-.09,2.575-.078,20.2l.018,19.891.2.418a3.683,3.683,0,0,0,1.2,1.487l.328.245h2.885l.287-.2a3.378,3.378,0,0,0,1.3-1.607l.191-.46v-45.7l-.125-.239c-.072-.131-.167-.245-.221-.257A5.584,5.584,0,0,0,1385.221-953.938Z" transform="translate(-1325.619 983.061)" fill="#7dd957"/>
        <path id="Path_1616" data-name="Path 1616" d="M472.667-713.734a17.622,17.622,0,0,0-1.589,1.607c-.1.125-.92.974-1.828,1.894a18.18,18.18,0,0,0-1.7,1.822c-.03.09-.048,6.087-.048,13.332v13.171l.221.448a5.6,5.6,0,0,0,.448.747,3.47,3.47,0,0,0,1.171.95,20.068,20.068,0,0,0,2.76-.024,3.7,3.7,0,0,0,1.105-.914.78.78,0,0,1,.179-.257,1.106,1.106,0,0,0,.215-.37,2.226,2.226,0,0,1,.167-.4l.125-.239v-30.105l-.173-.418a4.126,4.126,0,0,0-.657-1.141C472.864-713.865,472.858-713.871,472.667-713.734Z" transform="translate(-467.5 756.475)" fill="#7dd957"/>
      </g>
      <path id="Path_1612" data-name="Path 1612" d="M221.655-2199.7a4.487,4.487,0,0,0-.938.2,3.206,3.206,0,0,1-.544.155,3.384,3.384,0,0,0-.609.179,4.031,4.031,0,0,1-.627.179,3.174,3.174,0,0,0-.627.179,3.876,3.876,0,0,1-.639.179,2.232,2.232,0,0,0-.472.125,16.865,16.865,0,0,1-1.756.5c-.215.06-.538.155-.717.221s-.532.167-.777.227-.6.167-.788.239a2.18,2.18,0,0,1-.484.12,2.771,2.771,0,0,0-.556.143,6.936,6.936,0,0,1-.824.209,4.059,4.059,0,0,0-.627.161,6.226,6.226,0,0,1-.663.2c-.245.06-.6.167-.777.233a2.339,2.339,0,0,1-.49.125,3.439,3.439,0,0,0-.627.143c-.257.084-.627.191-.824.239s-.52.143-.717.209a15.989,15.989,0,0,1-1.673.46c-.556.107-1.523.358-2,.514-.358.114-.723.215-1.792.5-.215.054-.621.179-.908.275a4.605,4.605,0,0,1-.615.167,4.114,4.114,0,0,0-.615.173c-.287.1-.621.191-.747.215a2.5,2.5,0,0,0-.49.149,3.7,3.7,0,0,1-.621.179,4.214,4.214,0,0,0-2.306,1.458,2.421,2.421,0,0,0-.436,1.523,1.932,1.932,0,0,0,.155.711,2.4,2.4,0,0,1,.161.442,4.131,4.131,0,0,0,.974,1.511c.119.131.765.818,1.44,1.523s1.362,1.434,1.529,1.613.633.657,1.021,1.063.759.812.818.908l.107.173-.376.406c-.209.221-.968,1.01-1.69,1.75s-1.583,1.625-1.911,1.971-1.219,1.26-1.977,2.031c-1.356,1.386-1.69,1.732-3.22,3.375-.424.46-1.571,1.643-2.545,2.628-2.6,2.635-4.689,4.8-5.251,5.436-.329.376-1.213,1.3-3.19,3.345-.86.884-2.246,2.318-3.082,3.184s-1.565,1.643-1.619,1.726a.983.983,0,0,1-.269.251,10.953,10.953,0,0,0-.95.938c-.424.454-1.153,1.219-1.613,1.7s-1.362,1.416-2,2.091-1.619,1.684-2.18,2.246-1.511,1.547-2.115,2.18a19.833,19.833,0,0,1-2.371,2.384c-.251,0-.526-.263-2.981-2.861-.227-.239-.95-.979-1.607-1.643s-1.428-1.469-1.726-1.8c-.561-.621-1.123-1.213-3.112-3.255-2.132-2.186-2.867-2.951-3.291-3.4-.6-.657-3.715-3.865-4.48-4.629a4.911,4.911,0,0,0-1.177-.944,2.937,2.937,0,0,0-.627-.281,1.487,1.487,0,0,1-.376-.125,4.652,4.652,0,0,0-1.822-.167,5.308,5.308,0,0,0-1.7.5,1.514,1.514,0,0,1-.323.173,41.174,41.174,0,0,0-3.65,3.56c-.46.478-1.559,1.619-2.449,2.539-1.8,1.87-2.706,2.807-3.584,3.733-.711.753-1.774,1.858-2.957,3.076-1.989,2.061-4.062,4.205-5.292,5.5-1.762,1.846-3.04,3.178-5.489,5.7-.836.866-3,3.124-4.241,4.42-1.183,1.242-2.156,2.252-6.3,6.541-.412.424-1.105,1.141-1.529,1.583-1.117,1.159-1.888,1.989-2.27,2.455a6.022,6.022,0,0,0-.86,1.535,2.275,2.275,0,0,1-.125.418,5.222,5.222,0,0,0-.125,1.953,5.95,5.95,0,0,0,1.1,2.455,5.169,5.169,0,0,0,1.284,1.1,1.962,1.962,0,0,1,.376.2,3.635,3.635,0,0,0,.836.311,4.238,4.238,0,0,0,2.4,0,4.491,4.491,0,0,1,.591-.161.725.725,0,0,0,.263-.143,1.348,1.348,0,0,1,.329-.185c.287-.09.711-.46,1.583-1.386.49-.52,1.822-1.9,2.963-3.064s2.24-2.306,2.455-2.533.693-.74,1.075-1.135.968-1.021,1.308-1.392a4.222,4.222,0,0,1,.788-.729c.09-.036.167-.09.167-.125s.777-.836,1.72-1.78,1.8-1.822,1.894-1.953.478-.538.848-.908a7.8,7.8,0,0,0,.759-.836,4.545,4.545,0,0,1,.585-.651c.269-.269.711-.711.968-.986s1-1.039,1.649-1.7,1.368-1.41,1.613-1.673,1.195-1.26,2.121-2.21,1.894-1.959,2.15-2.24c1-1.075,1.428-1.517,3.046-3.166.92-.938,1.929-1.971,2.24-2.3.5-.526,1.428-1.488,3.6-3.721a3.865,3.865,0,0,1,.687-.609,23.809,23.809,0,0,1,3,2.981c.346.37,1.649,1.7,2.9,2.951s2.342,2.377,2.431,2.491.783.842,1.541,1.613,1.446,1.5,1.523,1.619c.161.251,1,1.129,3.232,3.4.89.9,1.911,1.959,2.27,2.348a4.238,4.238,0,0,0,2.509,1.648,8.027,8.027,0,0,1,.794.161,4.813,4.813,0,0,0,3.381-.938c.335-.245,3.082-3.058,6.332-6.493a3.889,3.889,0,0,1,.579-.525.776.776,0,0,0,.263-.275c.054-.1.92-1.01,1.929-2.019s1.917-1.935,2.013-2.067.538-.6.986-1.046.866-.89.926-.979c.1-.161.532-.615,2.294-2.449.412-.43,1-1.045,1.308-1.374s.926-.974,1.374-1.434l1.947-2c1.953-2.013,2.873-2.963,5.764-5.967.806-.836,1.989-2.061,2.628-2.718,3.291-3.381,5.4-5.579,5.531-5.764a.669.669,0,0,1,.293-.185c.113-.036.209-.1.209-.15a5.069,5.069,0,0,1,.657-.747c.358-.365.729-.764.818-.884s1.129-1.183,2.306-2.354a21.174,21.174,0,0,1,2.27-2.144.846.846,0,0,1,.794.394,3.575,3.575,0,0,0,.556.633c.281.281.567.585.633.663.155.2,2.455,2.586,3.554,3.7a4.1,4.1,0,0,0,2.234,1.458,1.656,1.656,0,0,0,.98.006,1.535,1.535,0,0,0,.717-.263,3.167,3.167,0,0,1,.37-.251c.149-.078.293-.239.693-.759a5.4,5.4,0,0,0,.591-1.421c.072-.263.161-.55.2-.639a3.582,3.582,0,0,0,.137-.568,8.224,8.224,0,0,1,.209-.818,2.677,2.677,0,0,0,.143-.573,2.681,2.681,0,0,1,.149-.592c.078-.239.173-.6.215-.8a4.981,4.981,0,0,1,.179-.7,7.426,7.426,0,0,0,.2-.782,4.421,4.421,0,0,1,.173-.663,3.936,3.936,0,0,0,.161-.651,9.134,9.134,0,0,1,.215-.914,3.744,3.744,0,0,0,.143-.615,3.828,3.828,0,0,1,.173-.657,6.336,6.336,0,0,0,.215-.824,3.8,3.8,0,0,1,.149-.6,4.769,4.769,0,0,0,.179-.657c.036-.2.119-.52.179-.717s.155-.549.2-.777a6.826,6.826,0,0,1,.215-.758,2.144,2.144,0,0,0,.119-.5,2.623,2.623,0,0,1,.149-.579,8.712,8.712,0,0,0,.233-.884,4.409,4.409,0,0,1,.173-.663,4.017,4.017,0,0,0,.161-.645,6.431,6.431,0,0,1,.215-.842,2.823,2.823,0,0,0,.143-.544,5,5,0,0,1,.173-.735c.1-.328.221-.759.269-.956.167-.675.287-1.135.454-1.7.09-.311.209-.74.257-.956.155-.627.287-1.123.466-1.762a18.343,18.343,0,0,0,.418-1.906,3.69,3.69,0,0,0-.179-1.571,2.382,2.382,0,0,0-1.153-1.487A3.66,3.66,0,0,0,221.655-2199.7Z" transform="translate(7 -344.779)" fill="#ffad0c"/>
    </g>
  </g>
</svg>
