<svg xmlns="http://www.w3.org/2000/svg" width="15.499" height="15.749" viewBox="0 0 15.499 15.749">
  <path id="Icon_awesome-power-off" data-name="Icon awesome-power-off" d="M12.812,1.69a7.748,7.748,0,1,1-9.006,0A.752.752,0,0,1,4.9,1.934l.494.878a.75.75,0,0,1-.206.969,5.249,5.249,0,1,0,6.246,0,.745.745,0,0,1-.2-.966l.494-.878a.749.749,0,0,1,1.087-.244ZM9.562,8.249V.75A.748.748,0,0,0,8.812,0h-1a.748.748,0,0,0-.75.75v7.5a.748.748,0,0,0,.75.75h1A.748.748,0,0,0,9.562,8.249Z" transform="translate(-0.562)" fill="#fff"/>
</svg>
