<svg xmlns="http://www.w3.org/2000/svg" width="52.875" height="49.25" viewBox="0 0 52.875 49.25">
  <g id="logo" transform="translate(-109.075 2589.381)">
    <path id="Path_1611" data-name="Path 1611" d="M709.861-2589.373c-9.567.01-13.307.02-13.393.036a2.253,2.253,0,0,0-.245.062.819.819,0,0,1-.167.042,2.986,2.986,0,0,0-.516.241,3.432,3.432,0,0,0-.661.635,2.55,2.55,0,0,0-.213.344.22.22,0,0,1-.04.072,3.191,3.191,0,0,0-.185.52c-.006.028-.026.161-.044.295a1.5,1.5,0,0,0,0,.516,2.171,2.171,0,0,0,.135.594,2.57,2.57,0,0,0,.956,1.236.96.96,0,0,0,.151.088.374.374,0,0,1,.09.05,2.189,2.189,0,0,0,.56.223l.2.056h14.368c13.628,0,14.374,0,14.482-.036a.491.491,0,0,1,.384.016c.088.026.2.054.249.062a1.128,1.128,0,0,1,.2.058.979.979,0,0,0,.2.059.667.667,0,0,1,.161.052,1.079,1.079,0,0,0,.169.06.931.931,0,0,1,.167.06,1.491,1.491,0,0,0,.179.064,6.048,6.048,0,0,1,.916.4c.028.016.082.043.12.06a1,1,0,0,1,.12.06c.028.016.1.052.149.08a2.416,2.416,0,0,1,.323.183.27.27,0,0,0,.08.044.363.363,0,0,1,.1.06.346.346,0,0,0,.1.06.33.33,0,0,1,.1.06.348.348,0,0,0,.1.06.306.306,0,0,1,.094.054c.038.032.122.091.185.135s.167.125.235.179.175.139.241.189a10.022,10.022,0,0,1,.836.721,12.744,12.744,0,0,1,1.115,1.243c.153.207.448.637.6.886.058.092.133.211.169.267a8.842,8.842,0,0,1,.572,1.127.214.214,0,0,0,.038.088.8.8,0,0,1,.062.139c.014.044.046.124.07.179a1.886,1.886,0,0,1,.08.2l.074.219c.022.066.062.177.088.249s.056.171.068.221a1.161,1.161,0,0,0,.056.179,1.19,1.19,0,0,1,.062.221,1.7,1.7,0,0,0,.052.217,1.77,1.77,0,0,1,.062.277c.016.1.048.265.068.358s.048.277.06.406.026.243.03.251.024.165.044.351a17.883,17.883,0,0,1,.012,2.059c-.105.693-.139.91-.187,1.145-.024.119-.06.275-.08.344s-.052.188-.068.263a1.071,1.071,0,0,1-.06.2.831.831,0,0,0-.052.163,1.312,1.312,0,0,1-.068.215c-.026.06-.064.163-.086.229a4.638,4.638,0,0,1-.163.44.508.508,0,0,0-.04.1c0,.018-.112.281-.187.44a10.183,10.183,0,0,1-.86,1.5c-.054.082-.116.176-.137.211s-.107.151-.189.259-.167.219-.187.249c-.149.2-.7.794-1.137,1.217a6.466,6.466,0,0,1-.587.508c-.056.044-.159.123-.229.179a8.054,8.054,0,0,1-.667.49c-.038.022-.127.075-.2.12s-.151.09-.179.1a.47.47,0,0,0-.08.048,1,1,0,0,1-.129.08l-.219.119c-.066.036-.151.08-.189.1a1.324,1.324,0,0,0-.12.06c-.028.016-.082.042-.12.06-.064.028-.1.046-.209.1a3.655,3.655,0,0,1-.6.249c-.066.022-.169.06-.229.086a1.178,1.178,0,0,1-.179.06.764.764,0,0,0-.143.052,1.059,1.059,0,0,1-.2.068,2.145,2.145,0,0,0-.231.07.631.631,0,0,1-.141.04,1.614,1.614,0,0,0-.213.052c-.1.028-.257.064-.357.08s-.237.048-.309.068-.327.068-.568.1a6.26,6.26,0,0,1-1.105.068,4.144,4.144,0,0,0-.777.038c-.06.018-.171.05-.249.07a2.551,2.551,0,0,0-.864.428c-.1.077-.2.149-.219.161a.15.15,0,0,0-.046.04c-.018.024-.022,4.612,0,4.658a.047.047,0,0,0,.038.032c.014,0,.058.052.1.115s.141.194.219.293.169.217.2.261.129.173.217.285c.279.352.474.6.651.838.492.646.719.938.789,1.01a.261.261,0,0,1,.064.094.082.082,0,0,0,.03.052c.016.014.094.11.173.215s.2.261.265.343.185.235.263.339c.227.3.325.424.38.486.028.032.088.11.132.174.119.167.265.36.39.516s.2.251.32.418c.046.06.118.151.163.205s.127.16.181.235.213.281.351.458c.3.388.577.747.81,1.052.1.123.2.261.235.3.088.112.392.508.5.646.05.066.118.151.149.189s.094.115.135.171c.125.173.265.358.452.6.1.125.211.271.249.323s.11.146.159.205c.082.1.279.356.532.7.044.062.125.165.179.229.088.109.237.3.691.9.094.12.259.335.37.478s.261.337.333.434a.967.967,0,0,0,.149.173c.01,0,.03.03.046.067a.236.236,0,0,0,.048.08c.01.006.084.1.163.205s.223.291.317.408.211.269.263.339c.189.253.852,1.111.978,1.267.04.052.1.127.123.167a.388.388,0,0,0,.09.1c.022.014.04.036.04.048a5.564,5.564,0,0,0,.41.546,2.809,2.809,0,0,0,1.591,1.008,1.9,1.9,0,0,0,.761.008,1.621,1.621,0,0,0,.508-.1.8.8,0,0,1,.159-.058.34.34,0,0,0,.106-.05.365.365,0,0,1,.111-.05,1.358,1.358,0,0,0,.357-.213,2.75,2.75,0,0,0,.536-.514c.205-.3.241-.356.241-.385a.372.372,0,0,1,.048-.112,2.51,2.51,0,0,0,.233-1,2.961,2.961,0,0,0-.11-.8,1.305,1.305,0,0,1-.062-.183,2.68,2.68,0,0,0-.295-.538c-.129-.183-.235-.324-.323-.432-.054-.068-.131-.165-.169-.219s-.11-.146-.159-.205-.169-.213-.265-.339-.259-.343-.366-.482-.253-.33-.325-.424-.175-.227-.229-.295-.167-.213-.249-.322-.193-.255-.249-.321-.189-.241-.3-.386-.287-.376-.4-.516-.247-.318-.307-.4-.157-.205-.213-.273-.125-.157-.155-.2-.112-.147-.179-.235-.159-.209-.2-.269-.138-.181-.211-.269-.159-.2-.191-.249-.129-.175-.211-.278-.175-.224-.207-.265-.1-.132-.155-.2-.179-.227-.275-.352c-.159-.213-.37-.486-.806-1.052-.1-.123-.229-.3-.3-.388l-.2-.263c-.127-.161-.374-.484-.576-.749-.1-.135-.225-.293-.269-.346s-.149-.189-.231-.3-.187-.247-.237-.3-.129-.163-.179-.231c-.1-.139-.4-.534-.637-.831-.083-.1-.193-.247-.245-.319-.1-.139-.311-.408-.484-.625-.062-.077-.153-.193-.2-.259l-.167-.219c-.125-.158-.372-.482-.568-.739-.1-.131-.221-.286-.273-.348a.488.488,0,0,1-.1-.145c0-.05.076-.086.269-.132a2.476,2.476,0,0,0,.269-.081,1.891,1.891,0,0,1,.229-.076c.078-.02.179-.05.229-.067.157-.056.345-.116.478-.152a1.052,1.052,0,0,0,.2-.078.284.284,0,0,1,.1-.043.576.576,0,0,0,.147-.06.571.571,0,0,1,.137-.06.359.359,0,0,0,.1-.042c.044-.022.13-.058.187-.08a.938.938,0,0,0,.149-.066.776.776,0,0,1,.121-.052,1.258,1.258,0,0,0,.169-.072c.05-.026.122-.062.159-.078s.092-.044.12-.06.135-.07.239-.122.243-.121.309-.157.165-.089.219-.119.147-.08.2-.116l.269-.161c.092-.054.187-.115.215-.137s.117-.082.2-.136c.207-.137.325-.219.488-.334.078-.056.175-.125.219-.155a17.1,17.1,0,0,0,2.86-2.707c.309-.372.583-.731.717-.934l.084-.13c.279-.416.49-.745.574-.9.018-.032.046-.08.064-.107.046-.068.1-.169.217-.38.054-.1.109-.2.125-.229.07-.124.281-.54.372-.737.034-.072.09-.193.126-.269a3.138,3.138,0,0,0,.189-.446.407.407,0,0,1,.042-.105,4,4,0,0,0,.177-.474c.024-.072.06-.169.082-.219a1.465,1.465,0,0,0,.06-.189.947.947,0,0,1,.054-.157,4.248,4.248,0,0,0,.155-.52c.016-.066.052-.2.08-.289.068-.235.187-.76.187-.821a1.694,1.694,0,0,1,.048-.237,3.435,3.435,0,0,0,.07-.4c.012-.115.04-.3.062-.408a10.8,10.8,0,0,0,.092-1.593c.014-.723-.034-2.161-.082-2.41-.018-.088-.044-.277-.06-.418s-.052-.361-.08-.482a2.108,2.108,0,0,1-.05-.291,1.184,1.184,0,0,0-.04-.215c-.024-.081-.056-.219-.072-.306s-.052-.231-.078-.319-.054-.195-.062-.239a1.09,1.09,0,0,0-.052-.177,1.283,1.283,0,0,1-.056-.2,2.111,2.111,0,0,0-.066-.231c-.076-.207-.133-.378-.175-.524a1.129,1.129,0,0,0-.066-.179.516.516,0,0,1-.052-.134,1.112,1.112,0,0,0-.064-.167,1.341,1.341,0,0,1-.07-.177.7.7,0,0,0-.056-.141.763.763,0,0,1-.05-.122.677.677,0,0,0-.06-.129.393.393,0,0,1-.05-.1c-.014-.046-.245-.54-.293-.627-.014-.021-.088-.167-.165-.321a6.335,6.335,0,0,0-.342-.608.327.327,0,0,1-.046-.085,6.69,6.69,0,0,0-.4-.629,13.88,13.88,0,0,0-1.786-2.22,12.862,12.862,0,0,0-1.721-1.563l-.285-.209c-.333-.247-.478-.353-.581-.42-.048-.032-.121-.08-.161-.108s-.1-.068-.131-.088-.1-.064-.141-.094a.493.493,0,0,0-.1-.058.326.326,0,0,1-.074-.042,1.261,1.261,0,0,0-.141-.085c-.046-.026-.138-.074-.2-.11l-.229-.124c-.06-.032-.124-.066-.14-.077s-.062-.034-.1-.054l-.189-.1c-.064-.034-.157-.082-.207-.106s-.1-.054-.119-.064-.062-.032-.1-.05-.119-.058-.181-.09a.633.633,0,0,0-.137-.058.292.292,0,0,1-.1-.046,2.865,2.865,0,0,0-.464-.2l-.309-.115c-.086-.032-.191-.072-.235-.09a.61.61,0,0,0-.117-.032.67.67,0,0,1-.149-.048,4.33,4.33,0,0,0-.53-.165c-.066-.016-.181-.05-.259-.076a2.381,2.381,0,0,0-.249-.07c-.06-.012-.167-.04-.235-.06a1.914,1.914,0,0,0-.259-.06,1.982,1.982,0,0,1-.253-.06,2.371,2.371,0,0,0-.263-.058.614.614,0,0,1-.211-.06.736.736,0,0,0-.223-.064,1.446,1.446,0,0,1-.251-.058,6.156,6.156,0,0,0-1.452-.086C723.515-2589.383,717.162-2589.379,709.861-2589.373Z" transform="translate(-576.901 0)" fill="#38b7ff"/>
    <g id="Group_1655" data-name="Group 1655" transform="translate(114.953 -2566.249)">
      <path id="Path_1613" data-name="Path 1613" d="M1839.1-1427.82c-.072.05-1.42,1.406-1.488,1.494-.03.042-.134.151-.227.247a2.512,2.512,0,0,0-.209.227c-.038.056-.038.323-.043,11.427,0,9.812,0,11.381.024,11.453a1.23,1.23,0,0,0,.324.528c.173.135.215.161.273.171.034.008.255.01.49.006.412-.006.432-.008.488-.052.034-.024.1-.074.147-.11a1.2,1.2,0,0,0,.324-.468l.066-.153.012-9.051c.014-8.958.008-15.072-.014-15.472-.01-.165-.02-.213-.05-.243C1839.173-1427.862,1839.163-1427.862,1839.1-1427.82Z" transform="translate(-1809.857 1427.851)" fill="#7dd957"/>
      <path id="Path_1614" data-name="Path 1614" d="M923.169-977.936c-.006.036-.008,3.6-.006,7.932l.006,7.866.066.129a2.217,2.217,0,0,0,.217.382,1.279,1.279,0,0,0,.354.247c.032.006.253.008.488,0l.428-.006.12-.084a1.344,1.344,0,0,0,.163-.129,1.687,1.687,0,0,0,.251-.412l.064-.151.01-6.8c.006-4.507,0-6.823-.01-6.865a1.206,1.206,0,0,0-.209-.259c-.1-.108-.215-.231-.249-.275-.092-.123-1.619-1.643-1.653-1.643C923.193-978,923.175-977.974,923.169-977.936Z" transform="translate(-914.088 986.959)" fill="#7dd957"/>
      <path id="Path_1615" data-name="Path 1615" d="M1381.829-954.516c-.161.163-.323.331-.354.374s-.335.355-.671.693c-.571.572-.615.621-.643.719s-.03.858-.026,6.733l.006,6.632.068.139a1.229,1.229,0,0,0,.4.5l.109.082h.962l.1-.068a1.126,1.126,0,0,0,.432-.536l.064-.153v-15.235l-.042-.08c-.024-.044-.056-.082-.074-.086A1.859,1.859,0,0,0,1381.829-954.516Z" transform="translate(-1361.958 964.225)" fill="#7dd957"/>
      <path id="Path_1616" data-name="Path 1616" d="M469.223-713.794a5.881,5.881,0,0,0-.53.536c-.032.042-.307.325-.609.631a6.078,6.078,0,0,0-.568.607c-.01.03-.016,2.029-.016,4.445v4.391l.074.149a1.869,1.869,0,0,0,.149.249,1.157,1.157,0,0,0,.39.317,6.7,6.7,0,0,0,.92-.008,1.232,1.232,0,0,0,.368-.3.261.261,0,0,1,.06-.086.367.367,0,0,0,.072-.123.736.736,0,0,1,.056-.133l.042-.08V-713.24l-.058-.139a1.376,1.376,0,0,0-.219-.38C469.288-713.838,469.286-713.84,469.223-713.794Z" transform="translate(-467.5 728.044)" fill="#7dd957"/>
    </g>
    <path id="Path_1612" data-name="Path 1612" d="M141.942-2199.737a1.523,1.523,0,0,0-.313.066,1.078,1.078,0,0,1-.181.052,1.116,1.116,0,0,0-.2.06,1.357,1.357,0,0,1-.209.06,1.031,1.031,0,0,0-.209.06,1.294,1.294,0,0,1-.213.06.754.754,0,0,0-.157.042,5.532,5.532,0,0,1-.586.168c-.072.02-.179.052-.239.074s-.177.055-.259.076-.2.056-.263.08a.75.75,0,0,1-.161.04.926.926,0,0,0-.185.048,2.314,2.314,0,0,1-.275.07,1.356,1.356,0,0,0-.209.054,2.005,2.005,0,0,1-.221.068c-.082.02-.2.056-.259.077a.734.734,0,0,1-.163.042,1.156,1.156,0,0,0-.209.048c-.086.028-.209.063-.275.08s-.173.048-.239.069a5.232,5.232,0,0,1-.558.153c-.185.036-.508.12-.667.171-.12.038-.241.072-.6.167-.072.018-.207.06-.3.092a1.511,1.511,0,0,1-.205.056,1.392,1.392,0,0,0-.205.058c-.1.032-.207.064-.249.072a.794.794,0,0,0-.163.05,1.289,1.289,0,0,1-.207.06,1.4,1.4,0,0,0-.769.486.807.807,0,0,0-.145.508.647.647,0,0,0,.052.237.8.8,0,0,1,.054.147,1.378,1.378,0,0,0,.325.5c.04.044.255.273.48.508l.51.538.341.354c.129.135.253.271.273.3l.036.058-.125.135c-.07.074-.323.337-.564.584s-.528.542-.637.657-.406.42-.659.677c-.452.462-.564.578-1.073,1.125-.141.153-.524.548-.848.876-.866.878-1.563,1.6-1.751,1.812-.11.126-.4.434-1.063,1.115-.287.294-.749.772-1.028,1.061s-.522.548-.54.576a.322.322,0,0,1-.09.083,3.7,3.7,0,0,0-.317.313c-.141.151-.384.406-.538.565s-.454.472-.667.7-.54.562-.727.749-.5.516-.7.727a6.563,6.563,0,0,1-.791.795c-.084,0-.175-.087-.994-.954-.076-.08-.317-.326-.536-.547s-.476-.49-.576-.6c-.187-.207-.374-.4-1.038-1.085-.711-.729-.956-.984-1.1-1.135-.2-.219-1.239-1.289-1.494-1.543a1.626,1.626,0,0,0-.392-.314.992.992,0,0,0-.209-.094.492.492,0,0,1-.125-.042,1.555,1.555,0,0,0-.607-.056,1.77,1.77,0,0,0-.568.167.521.521,0,0,1-.108.058,13.744,13.744,0,0,0-1.217,1.187l-.816.846c-.6.623-.9.936-1.195,1.245-.237.251-.591.62-.986,1.025-.663.688-1.354,1.4-1.764,1.833-.587.615-1.014,1.059-1.83,1.9-.279.289-1,1.042-1.414,1.474-.394.414-.719.751-2.1,2.181-.137.141-.368.38-.51.528-.372.386-.629.663-.757.818a2.01,2.01,0,0,0-.287.512.749.749,0,0,1-.042.139,1.743,1.743,0,0,0-.042.651,1.985,1.985,0,0,0,.366.819,1.72,1.72,0,0,0,.428.368.665.665,0,0,1,.125.068,1.24,1.24,0,0,0,.279.1,1.413,1.413,0,0,0,.8,0,1.438,1.438,0,0,1,.2-.054.246.246,0,0,0,.088-.048.444.444,0,0,1,.11-.062c.1-.03.237-.153.528-.462.163-.173.607-.633.988-1.021s.747-.769.818-.845.231-.247.358-.378.323-.341.436-.464a1.4,1.4,0,0,1,.263-.243c.03-.012.056-.03.056-.042s.259-.279.574-.593.6-.607.631-.651.159-.179.283-.3a2.589,2.589,0,0,0,.253-.279,1.514,1.514,0,0,1,.2-.217c.09-.09.237-.237.323-.329s.335-.347.55-.566.456-.47.538-.558.4-.42.707-.737.631-.653.717-.747c.333-.358.476-.506,1.016-1.055.307-.313.643-.657.747-.767.165-.175.476-.5,1.2-1.241a1.3,1.3,0,0,1,.229-.2,7.963,7.963,0,0,1,1,.994c.116.124.55.565.966.984s.781.792.811.831.261.281.514.538.482.5.508.54c.054.084.333.376,1.077,1.133.3.3.637.653.757.782a1.413,1.413,0,0,0,.836.55c.086.012.205.038.265.053a1.6,1.6,0,0,0,1.127-.312c.112-.082,1.028-1.02,2.111-2.165a1.278,1.278,0,0,1,.193-.175.258.258,0,0,0,.088-.092c.018-.034.307-.336.643-.673s.639-.646.671-.689.179-.2.329-.349.289-.3.309-.327c.034-.054.177-.205.765-.816l.436-.458c.1-.109.309-.325.458-.478l.649-.667c.651-.671.958-.988,1.922-1.99.269-.279.663-.687.876-.906,1.1-1.127,1.8-1.86,1.844-1.922a.231.231,0,0,1,.1-.062c.038-.012.07-.034.07-.05a1.691,1.691,0,0,1,.219-.249c.119-.121.243-.255.273-.294s.376-.395.769-.785a7.046,7.046,0,0,1,.757-.715.281.281,0,0,1,.265.131,1.179,1.179,0,0,0,.185.211c.094.094.189.2.211.221.052.068.818.862,1.185,1.233a1.364,1.364,0,0,0,.745.485.549.549,0,0,0,.327,0,.507.507,0,0,0,.239-.088,1.075,1.075,0,0,1,.123-.083c.05-.026.1-.08.231-.253a1.8,1.8,0,0,0,.2-.474c.024-.088.054-.184.066-.213a1.186,1.186,0,0,0,.046-.189,2.755,2.755,0,0,1,.07-.273.891.891,0,0,0,.048-.191.89.89,0,0,1,.05-.2c.026-.08.058-.2.072-.267a1.66,1.66,0,0,1,.06-.233,2.488,2.488,0,0,0,.066-.26,1.455,1.455,0,0,1,.058-.221,1.322,1.322,0,0,0,.054-.217,3.084,3.084,0,0,1,.072-.3,1.249,1.249,0,0,0,.048-.205,1.274,1.274,0,0,1,.058-.219,2.124,2.124,0,0,0,.072-.275,1.263,1.263,0,0,1,.05-.2,1.588,1.588,0,0,0,.06-.219c.012-.066.04-.173.06-.239s.052-.183.068-.259a2.268,2.268,0,0,1,.072-.253.713.713,0,0,0,.04-.167.877.877,0,0,1,.05-.193,2.927,2.927,0,0,0,.078-.295,1.464,1.464,0,0,1,.058-.221,1.345,1.345,0,0,0,.054-.215,2.141,2.141,0,0,1,.072-.281.946.946,0,0,0,.048-.181,1.672,1.672,0,0,1,.058-.245c.034-.109.074-.252.09-.318.056-.225.1-.378.151-.567.03-.1.07-.247.086-.319.052-.209.1-.374.155-.588a6.114,6.114,0,0,0,.139-.635,1.23,1.23,0,0,0-.06-.524.794.794,0,0,0-.384-.5A1.22,1.22,0,0,0,141.942-2199.737Z" transform="translate(7 -374.674)" fill="#ffad0c"/>
  </g>
</svg>
