<svg id="Menu" xmlns="http://www.w3.org/2000/svg" width="27.432" height="27.432" viewBox="0 0 27.432 27.432">
  <path id="Path_1601" data-name="Path 1601" d="M23.716,10a13.712,13.712,0,1,1-7.74,2.39.985.985,0,0,1,1.111,1.626,11.748,11.748,0,1,0,6.628-2.046.985.985,0,0,1,0-1.971ZM16.332,26.588h10.01a.985.985,0,1,1,0,1.971H16.332a.985.985,0,1,1,0-1.971Zm0-3.938H31.1a.985.985,0,1,1,0,1.971H16.332a.985.985,0,0,1,0-1.971Zm0-3.776h6.236a.985.985,0,1,1,0,1.971H16.332a.985.985,0,0,1,0-1.971Z" transform="translate(-10 -10)" fill="#fff"/>
</svg>
